<svg width="13" height="12" viewBox="0 0 13 12" fill="none" xmlns="http://www.w3.org/2000/svg">
<path d="M10.4163 9.98663C10.194 10.0639 9.99214 10.1905 9.82576 10.3569C9.65938 10.5233 9.53284 10.7252 9.45563 10.9475L9.16364 11.7878C9.16173 11.7942 9.15779 11.7999 9.15241 11.8039C9.14702 11.8079 9.14047 11.8101 9.13374 11.8101C9.12701 11.8101 9.12047 11.8079 9.11508 11.8039C9.10969 11.7999 9.10575 11.7942 9.10385 11.7878L8.81256 10.9475C8.73528 10.7251 8.60864 10.5232 8.44212 10.3568C8.27561 10.1903 8.07357 10.0638 7.85115 9.98663L7.01133 9.69476C7.00521 9.69264 6.9999 9.68866 6.99615 9.68338C6.99239 9.6781 6.99037 9.67179 6.99037 9.66531C6.99037 9.65884 6.99239 9.65253 6.99615 9.64725C6.9999 9.64197 7.00521 9.63799 7.01133 9.63586L7.85115 9.34399C8.07357 9.26684 8.27561 9.14033 8.44212 8.97391C8.60864 8.80749 8.73528 8.60549 8.81256 8.38312L9.10385 7.54288C9.10575 7.53642 9.10969 7.53076 9.11508 7.52673C9.12047 7.52271 9.12701 7.52054 9.13374 7.52054C9.14047 7.52054 9.14702 7.52271 9.15241 7.52673C9.15779 7.53076 9.16173 7.53642 9.16364 7.54288L9.45563 8.38312C9.53284 8.60541 9.65938 8.80734 9.82576 8.97375C9.99214 9.14017 10.194 9.26675 10.4163 9.34399L11.2569 9.63586C11.263 9.63799 11.2683 9.64197 11.2721 9.64725C11.2758 9.65253 11.2778 9.65884 11.2778 9.66531C11.2778 9.67179 11.2758 9.6781 11.2721 9.68338C11.2683 9.68866 11.263 9.69264 11.2569 9.69476L10.4163 9.98663Z" fill="#006aff"/>
<path d="M11.0944 3.97134C10.8166 4.06788 10.5641 4.2261 10.3561 4.43411C10.1481 4.64213 9.98994 4.89454 9.89342 5.17242L9.52853 6.22275C9.52597 6.23054 9.52101 6.23731 9.51437 6.24213C9.50772 6.24694 9.49972 6.24954 9.49152 6.24954C9.48331 6.24954 9.47532 6.24694 9.46867 6.24213C9.46202 6.23731 9.45707 6.23054 9.4545 6.22275L9.08962 5.17242C8.99308 4.89453 8.83486 4.6421 8.62683 4.43408C8.4188 4.22607 8.16637 4.06786 7.88846 3.97134L6.83822 3.60651C6.83058 3.60385 6.82395 3.59888 6.81926 3.59229C6.81458 3.58569 6.81206 3.57779 6.81206 3.5697C6.81206 3.56161 6.81458 3.55374 6.81926 3.54715C6.82395 3.54056 6.83058 3.53556 6.83822 3.5329L7.88846 3.16806C8.16637 3.07154 8.4188 2.91337 8.62683 2.70535C8.83486 2.49734 8.99308 2.24491 9.08962 1.96701L9.4545 0.916687C9.45707 0.908892 9.46202 0.90209 9.46867 0.897278C9.47532 0.892466 9.48331 0.889893 9.49152 0.889893C9.49972 0.889893 9.50772 0.892466 9.51437 0.897278C9.52101 0.90209 9.52597 0.908892 9.52853 0.916687L9.89342 1.96701C9.98994 2.24489 10.1481 2.49731 10.3561 2.70532C10.5641 2.91334 10.8166 3.07152 11.0944 3.16806L12.1447 3.5329C12.1523 3.53556 12.1589 3.54056 12.1636 3.54715C12.1683 3.55374 12.1708 3.56161 12.1708 3.5697C12.1708 3.57779 12.1683 3.58569 12.1636 3.59229C12.1589 3.59888 12.1523 3.60385 12.1447 3.60651L11.0944 3.97134Z" fill="#006aff"/>
<path d="M6.47674 7.24844C6.09082 7.38253 5.74027 7.60226 5.45139 7.89117C5.16251 8.18008 4.94281 8.53069 4.80877 8.91663L4.3018 10.3754C4.29816 10.3861 4.29127 10.3954 4.28207 10.402C4.27288 10.4086 4.26185 10.4121 4.25054 10.4121C4.23923 10.4121 4.2282 10.4086 4.21901 10.402C4.20982 10.3954 4.20292 10.3861 4.19929 10.3754L3.69232 8.91663C3.55827 8.53069 3.33857 8.18008 3.0497 7.89117C2.76082 7.60226 2.41027 7.38253 2.02434 7.24844L0.565504 6.74173C0.554892 6.73804 0.545693 6.73111 0.539183 6.72195C0.532673 6.7128 0.529175 6.70185 0.529175 6.69061C0.529175 6.67938 0.532673 6.66843 0.539183 6.65927C0.545693 6.65011 0.554892 6.64319 0.565504 6.6395L2.02434 6.13278C2.41027 5.99869 2.76082 5.77896 3.0497 5.49005C3.33857 5.20114 3.55828 4.85054 3.69232 4.4646L4.19929 3.00583C4.20292 2.99512 4.20982 2.98584 4.21901 2.97925C4.2282 2.97266 4.23923 2.96909 4.25054 2.96909C4.26185 2.96909 4.27288 2.97266 4.28207 2.97925C4.29127 2.98584 4.29816 2.99512 4.3018 3.00583L4.80877 4.4646C4.94281 4.85054 5.16251 5.20114 5.45139 5.49005C5.74027 5.77896 6.09082 5.99869 6.47674 6.13278L7.93558 6.6395C7.94619 6.64319 7.95539 6.65011 7.9619 6.65927C7.96841 6.66843 7.97191 6.67938 7.97191 6.69061C7.97191 6.70185 7.96841 6.7128 7.9619 6.72195C7.95539 6.73111 7.94619 6.73804 7.93558 6.74173L6.47674 7.24844Z" fill="#006aff"/>
</svg>
